<svg width="36" height="36" viewBox="0 0 36 36" fill="none" xmlns="http://www.w3.org/2000/svg">
<path d="M32.8345 3.12828C30.7862 1.10483 28.0552 0 25.2 0C22.531 0 19.9862 0.98069 18 2.7C16.0138 0.918621 13.469 0 10.8 0C7.94483 0 5.21379 1.10483 3.16552 3.12828C-1.05517 7.29931 -1.05517 14.0462 3.16552 18.2172L17.5655 32.4497C17.6897 32.5738 17.8138 32.6359 18 32.6359C18.1862 32.6359 18.3103 32.5738 18.4345 32.4497L32.8345 18.2172C37.0552 14.0462 37.0552 7.29931 32.8345 3.12828ZM31.7793 17.7455L19.6014 29.9234C18.7138 30.811 17.28 30.811 16.3986 29.9234L4.22069 17.7517C0.614483 14.1455 0.254483 8.29241 3.63103 4.46897C5.46207 2.39586 8.06276 1.24138 10.8 1.24138C13.3448 1.24138 15.7655 2.23448 17.5655 4.03448C17.8014 4.27034 18.1986 4.27034 18.4345 4.03448C20.2345 2.23448 22.6552 1.24138 25.2 1.24138C27.9434 1.24138 30.5379 2.39586 32.369 4.46897C35.7455 8.29241 35.3855 14.1455 31.7793 17.7517V17.7455Z" fill="#7C8C9C"/>
<path d="M32.516 3.4839C30.7513 1.75588 27.4272 1.16132 24.9673 1.16132C22.6678 1.16132 19.5684 2.59625 17.8571 4.06454C16.1459 2.54325 13.3313 1.16132 11.0318 1.16132C8.57191 1.16132 5.82885 1.75588 4.06414 3.4839C0.42777 7.04595 -0.152753 13.8573 3.48361 17.4194L16.4775 30.358C16.5844 30.464 17.2585 30.7742 17.4189 30.7742C17.5793 30.7742 19.0539 30.8802 19.1608 30.7742L32.516 18C36.1523 14.438 36.1523 7.04595 32.516 3.4839ZM29.7288 17.4774L19.2368 27.8773C18.4721 28.6353 17.2368 28.6353 16.4775 27.8773L5.98547 17.4827C2.87852 14.403 2.56835 9.40444 5.47745 6.13923C7.05499 4.3688 9.29563 3.38287 11.6539 3.38287C13.8464 3.38287 15.932 4.23098 17.4828 5.76818C17.686 5.9696 18.0283 5.9696 18.2315 5.76818C19.7823 4.23098 21.8678 3.38287 24.0603 3.38287C26.424 3.38287 28.6593 4.3688 30.2368 6.13923C33.1459 9.40444 32.8358 14.403 29.7288 17.4827V17.4774Z" fill="#7C8C9C"/>
<path d="M30.0681 10.9544C30.1559 11.3509 30.1418 11.5199 29.582 11.8861C29.0993 12.1751 28.9425 11.7048 28.8064 11.26C28.018 8.46529 24.9019 7.65226 21.4626 8.38002C21.2115 8.43752 20.989 8.36943 20.8922 8.27259C20.747 8.12733 20.7273 7.95333 20.7848 7.70215C20.8998 7.19981 21.3628 6.73681 21.8651 6.62182C26.0579 5.72157 29.0952 7.66648 30.0681 10.9544Z" fill="#7C8C9C"/>
</svg>
