<svg width="34" height="34" viewBox="0 0 34 34" fill="none" xmlns="http://www.w3.org/2000/svg">
<path d="M27.6455 33.9996C25.7153 34.0208 23.8857 33.1829 22.701 31.7349C21.5163 30.287 21.1129 28.3959 21.6106 26.624L10.4436 20.5602C8.5139 22.2397 5.68538 22.5952 3.36242 21.4501C1.03946 20.305 -0.283138 17.9032 0.051328 15.4372C0.385794 12.9713 2.30608 10.9665 4.85872 10.4183C7.41136 9.87004 10.0526 10.8951 11.4711 12.9846L21.6089 7.47831C21.4777 7.00748 21.4082 6.52307 21.4019 6.03607C21.3764 3.20025 23.4495 0.736793 26.3668 0.136305C29.2842 -0.464183 32.2446 0.963214 33.4567 3.5548C34.6689 6.14638 33.7999 9.1904 31.3755 10.845C28.9512 12.4995 25.6373 12.3102 23.4391 10.3916L12.4665 16.3487C12.4556 16.7882 12.391 17.225 12.2738 17.6503L23.4391 23.7124C25.4946 21.9203 28.5531 21.6436 30.9276 23.0351C33.3022 24.4265 34.4147 27.1472 33.6515 29.6967C32.8884 32.2461 30.4354 34.0035 27.6455 33.9996ZM27.6455 25.5258C26.1677 25.5258 24.9697 26.664 24.9697 28.0679C24.9697 29.4719 26.1677 30.6101 27.6455 30.6101C29.1233 30.6101 30.3213 29.4719 30.3213 28.0679C30.3213 26.664 29.1233 25.5258 27.6455 25.5258ZM6.23895 13.6625C4.76114 13.6625 3.56313 14.8006 3.56313 16.2046C3.56313 17.6086 4.76114 18.7468 6.23895 18.7468C7.71676 18.7468 8.91477 17.6086 8.91477 16.2046C8.91477 14.8006 7.71676 13.6625 6.23895 13.6625ZM27.6455 3.49393C26.1677 3.49393 24.9697 4.63208 24.9697 6.03607C24.9697 7.44005 26.1677 8.57821 27.6455 8.57821C29.1233 8.57821 30.3213 7.44005 30.3213 6.03607C30.3213 4.63208 29.1233 3.49393 27.6455 3.49393Z" fill="#7C8C9C"/>
</svg>
