<svg width="36" height="36" viewBox="0 0 36 36" fill="none" xmlns="http://www.w3.org/2000/svg">
<g clip-path="url(#clip0_1363_4474)">
<path fill-rule="evenodd" clip-rule="evenodd" d="M0.43934 0.43934C1.02513 -0.146447 1.97487 -0.146447 2.56066 0.43934L3.28945 1.16813C4.03673 1.91541 4.49717 2.90186 4.59006 3.95459L4.77053 6H33C33.4367 6 33.8517 6.19028 34.1366 6.52117C34.4216 6.85205 34.5482 7.29067 34.4834 7.72251L32.6167 20.1675C32.2862 22.3704 30.3939 24 28.1664 24H6.35877L6.50275 25.6318C6.57108 26.4062 7.21962 27 7.99695 27H27C29.4853 27 31.5 29.0147 31.5 31.5C31.5 33.9853 29.4853 36 27 36C24.5147 36 22.5 33.9853 22.5 31.5C22.5 30.974 22.5902 30.4692 22.7561 30H11.7439C11.9098 30.4692 12 30.974 12 31.5C12 33.9853 9.98528 36 7.5 36C5.01472 36 3 33.9853 3 31.5C3 30.2089 3.54376 29.0447 4.41477 28.2241C3.91586 27.569 3.59158 26.7707 3.51437 25.8955L1.60167 4.21827C1.5707 3.86736 1.41723 3.53855 1.16813 3.28945L0.43934 2.56066C-0.146447 1.97487 -0.146447 1.02513 0.43934 0.43934ZM27 30C26.1716 30 25.5 30.6716 25.5 31.5C25.5 32.3284 26.1716 33 27 33C27.8284 33 28.5 32.3284 28.5 31.5C28.5 30.6716 27.8284 30 27 30ZM6.09406 21H28.1664C28.9089 21 29.5397 20.4568 29.6498 19.7225L31.2582 9H5.03524L6.09406 21ZM7.5 30C6.67157 30 6 30.6716 6 31.5C6 32.3284 6.67157 33 7.5 33C8.32843 33 9 32.3284 9 31.5C9 30.6716 8.32843 30 7.5 30Z" fill="#7C8C9C"/>
</g>
<defs>
<clipPath id="clip0_1363_4474">
<rect width="36" height="36" fill="white"/>
</clipPath>
</defs>
</svg>
