<svg width="20" height="20" viewBox="0 0 20 20" fill="none" xmlns="http://www.w3.org/2000/svg">
<path d="M18.0115 19.0579L11.5821 12.6274C8.72198 14.6607 4.78085 14.1634 2.51559 11.4831C0.250328 8.80293 0.41666 4.83401 2.89823 2.35273C5.37915 -0.129646 9.34845 -0.296698 12.0292 1.96844C14.7099 4.23358 15.2076 8.1751 13.174 11.0355L19.6034 17.466L18.0126 19.0567L18.0115 19.0579ZM7.67048 2.62496C5.53715 2.62448 3.69663 4.12199 3.26326 6.21084C2.8299 8.29969 3.92278 10.4058 5.88024 11.254C7.83771 12.1022 10.1217 11.4594 11.3495 9.71478C12.5773 7.97016 12.4113 5.60321 10.9521 4.04698L11.6327 4.72198L10.8655 3.95698L10.852 3.94348C10.0102 3.09655 8.86455 2.62174 7.67048 2.62496Z" fill="#9096A5"/>
</svg>
